<svg role="img" viewBox="0 0 24 24" xmlns="http://www.w3.org/2000/svg" fill="white">
    <title>X</title>
    <path d="M23.953 2.826c-.857.381-1.778.624-2.733.729a4.78 4.78 0 0 0 2.073-2.661 9.587 9.587 0 0 1-3.043 1.164A4.766 4.766 0 0 0 16.616.033a4.777 4.777 0 0 0-4.765 4.764c0 .37.045.727.123 1.074-3.964-.198-7.477-2.098-9.83-4.987a4.755 4.755 0 0 0-.646 2.403c0 1.663.842 3.133 2.148 3.992a4.775 4.775 0 0 1-2.161-.599v.061a4.772 4.772 0 0 0 3.829 4.676c-.515.14-1.048.209-1.6.209a4.887 4.887 0 0 1-.899-.082c.602 1.868 2.348 3.23 4.407 3.27a9.564 9.564 0 0 1-5.928 2.036c-.388 0-.767-.022-1.143-.067a13.48 13.48 0 0 0 7.318 2.143c8.784 0 13.592-7.282 13.592-13.596 0-.206-.004-.412-.014-.617a9.593 9.593 0 0 0 2.354-2.448z"/>
</svg>
